REM DIRINDEX 1\2,1\3,1\4,1\5,1\6
REM DIRNAME folder01,folder02,folder03,folder04,folder05,folder06
TITLE ""
FILE "Disc4Track55.mp3" MP3
  TRACK 01 AUDIO
    TITLE "3:cjc030_07734"
    INDEX 01 00:00:00
  TRACK 02 AUDIO
    TITLE "0:"
    INDEX 01 00:01:05
  TRACK 03 AUDIO
    TITLE "4:cjc030_07735"
    INDEX 01 00:01:15
  TRACK 04 AUDIO
    TITLE "0:"
    INDEX 01 00:02:16
  TRACK 05 AUDIO
    TITLE "5:cjc030_07736"
    INDEX 01 00:02:26
  TRACK 06 AUDIO
    TITLE "0:"
    INDEX 01 00:03:35
  TRACK 07 AUDIO
    TITLE "3:cjc030_07737"
    INDEX 01 00:04:07
  TRACK 08 AUDIO
    TITLE "0:"
    INDEX 01 00:05:09
  TRACK 09 AUDIO
    TITLE "4:cjc030_07738"
    INDEX 01 00:05:18
  TRACK 10 AUDIO
    TITLE "0:"
    INDEX 01 00:07:54
  TRACK 11 AUDIO
    TITLE "5:cjc030_07739"
    INDEX 01 00:07:64
  TRACK 12 AUDIO
    TITLE "0:"
    INDEX 01 00:08:66
  TRACK 13 AUDIO
    TITLE "3:cjc030_07740"
    INDEX 01 00:09:38
  TRACK 14 AUDIO
    TITLE "0:"
    INDEX 01 00:10:59
  TRACK 15 AUDIO
    TITLE "4:cjc030_07741"
    INDEX 01 00:10:68
  TRACK 16 AUDIO
    TITLE "0:"
    INDEX 01 00:12:09
  TRACK 17 AUDIO
    TITLE "5:cjc030_07742"
    INDEX 01 00:12:20
  TRACK 18 AUDIO
    TITLE "0:"
    INDEX 01 00:13:37
  TRACK 19 AUDIO
    TITLE "3:cjc030_07743"
    INDEX 01 00:14:21
  TRACK 20 AUDIO
    TITLE "0:"
    INDEX 01 00:15:21
  TRACK 21 AUDIO
    TITLE "4:cjc030_07744"
    INDEX 01 00:15:32
  TRACK 22 AUDIO
    TITLE "0:"
    INDEX 01 00:17:61
  TRACK 23 AUDIO
    TITLE "5:cjc030_07745"
    INDEX 01 00:17:70
  TRACK 24 AUDIO
    TITLE "0:"
    INDEX 01 00:18:72
  TRACK 25 AUDIO
    TITLE "6:cjc030_07746"
    INDEX 01 00:19:09
  TRACK 26 AUDIO
    TITLE "0:"
    INDEX 01 00:20:71
  TRACK 27 AUDIO
    TITLE "3:cjc030_07747"
    INDEX 01 00:21:43
  TRACK 28 AUDIO
    TITLE "0:"
    INDEX 01 00:22:52
  TRACK 29 AUDIO
    TITLE "4:cjc030_07748"
    INDEX 01 00:22:62
  TRACK 30 AUDIO
    TITLE "0:"
    INDEX 01 00:25:15
  TRACK 31 AUDIO
    TITLE "5:cjc030_07749"
    INDEX 01 00:25:25
  TRACK 32 AUDIO
    TITLE "0:"
    INDEX 01 00:26:34
  TRACK 33 AUDIO
    TITLE "3:cjc030_07750"
    INDEX 01 00:27:06
  TRACK 34 AUDIO
    TITLE "0:"
    INDEX 01 00:28:04
  TRACK 35 AUDIO
    TITLE "4:cjc030_07751"
    INDEX 01 00:28:13
  TRACK 36 AUDIO
    TITLE "0:"
    INDEX 01 00:29:66
  TRACK 37 AUDIO
    TITLE "5:cjc030_07752"
    INDEX 01 00:29:74
  TRACK 38 AUDIO
    TITLE "0:"
    INDEX 01 00:30:73
  TRACK 39 AUDIO
    TITLE "3:cjc030_07753"
    INDEX 01 00:31:53
  TRACK 40 AUDIO
    TITLE "0:"
    INDEX 01 00:32:58
  TRACK 41 AUDIO
    TITLE "4:cjc030_07754"
    INDEX 01 00:32:66
  TRACK 42 AUDIO
    TITLE "0:"
    INDEX 01 00:33:73
  TRACK 43 AUDIO
    TITLE "5:cjc030_07755"
    INDEX 01 00:34:06
  TRACK 44 AUDIO
    TITLE "0:"
    INDEX 01 00:35:10
  TRACK 45 AUDIO
    TITLE "3:cjc030_07756"
    INDEX 01 00:35:68
  TRACK 46 AUDIO
    TITLE "0:"
    INDEX 01 00:37:01
  TRACK 47 AUDIO
    TITLE "4:cjc030_07757"
    INDEX 01 00:37:10
  TRACK 48 AUDIO
    TITLE "0:"
    INDEX 01 00:39:02
  TRACK 49 AUDIO
    TITLE "5:cjc030_07758"
    INDEX 01 00:39:11
  TRACK 50 AUDIO
    TITLE "0:"
    INDEX 01 00:40:17
  TRACK 51 AUDIO
    TITLE "3:cjc030_07759"
    INDEX 01 00:40:73
  TRACK 52 AUDIO
    TITLE "0:"
    INDEX 01 00:42:00
  TRACK 53 AUDIO
    TITLE "4:cjc030_07760"
    INDEX 01 00:42:08
  TRACK 54 AUDIO
    TITLE "0:"
    INDEX 01 00:44:12
  TRACK 55 AUDIO
    TITLE "5:cjc030_07761"
    INDEX 01 00:44:20
  TRACK 56 AUDIO
    TITLE "0:"
    INDEX 01 00:45:22
  TRACK 57 AUDIO
    TITLE "3:cjc030_07762"
    INDEX 01 00:46:04
  TRACK 58 AUDIO
    TITLE "0:"
    INDEX 01 00:47:05
  TRACK 59 AUDIO
    TITLE "4:cjc030_07763"
    INDEX 01 00:47:15
  TRACK 60 AUDIO
    TITLE "0:"
    INDEX 01 00:48:22
  TRACK 61 AUDIO
    TITLE "5:cjc030_07764"
    INDEX 01 00:48:30
  TRACK 62 AUDIO
    TITLE "0:"
    INDEX 01 00:49:31
  TRACK 63 AUDIO
    TITLE "6:cjc030_07765"
    INDEX 01 00:49:43
  TRACK 64 AUDIO
    TITLE "0:"
    INDEX 01 00:51:48
